==================================================================
             Come joing us at www.moviestorrent.net
==================================================================

General
Complete name                  : Young Master (1980) HDRip-MT.mkv
Format                         : Matroska
Format version                 : Version 2
File size                      : 1.66 GiB
Duration                       : 1h 42mn
Overall bit rate               : 2 331 Kbps
Encoded date                   : UTC 2012-02-03 17:07:41

Video
Format                         : AVC
Format/Info                    : Advanced Video Codec
Format profile                 : High@L4.1
Format settings, CABAC         : Yes
Format settings, ReFrames      : 3 frames
Muxing mode                    : Header stripping
Codec ID                       : V_MPEG4/ISO/AVC
Duration                       : 1h 42mn
Bit rate                       : 2 138 Kbps
Width                          : 864 pixels
Height                         : 368 pixels
Display aspect ratio           : 2.35:1
Frame rate                     : 25.000 fps
Color space                    : YUV
Chroma subsampling             : 4:2:0
Bit depth                      : 8 bits
Scan type                      : Progressive
Bits/(Pixel*Frame)             : 0.269
Stream size                    : 1.49 GiB (90%)
Title                          : The Young Master (1980)
Writing library                : x264 core 67 r1139M 1024283
Language                       : Chinese
Default                        : Yes
Forced                         : No

Audio
Format                         : AC-3
Format/Info                    : Audio Coding 3
Muxing mode                    : Header stripping
Codec ID                       : A_AC3
Duration                       : 1h 42mn
Bit rate mode                  : Constant
Bit rate                       : 192 Kbps
Channel(s)                     : 2 channels
Channel positions              : Front: L R
Sampling rate                  : 48.0 KHz
Bit depth                      : 16 bits
Compression mode               : Lossy
Stream size                    : 140 MiB (8%)
Title                          : AC3-Cantonese
Language                       : Chinese
Default                        : Yes
Forced                         : No

Subtitle
Language                       : English
Default                        : Yes
Forced                         : No
Screenshots and more info at:
 . <a href=" 
http://www.moviestorrent.net/" rel="nofollow"> 
http://www.moviestorrent.net/</a>
